<svg xmlns="http://www.w3.org/2000/svg" viewBox="0 0 48 48" width="48px" height="48px">
  <path fill="#4285F4" d="M24 9.5c3.54 0 6.29 1.46 8.19 3.34l6.09-6.09C34.55 3.55 29.74 1 24 1 14.94 1 7.48 6.48 4.24 14.26l7.14 5.53C12.9 13.55 17.95 9.5 24 9.5z"/>
  <path fill="#34A853" d="M46.1 24.5c0-1.64-.15-3.22-.42-4.74H24v9.48h12.46c-.54 2.9-2.12 5.35-4.46 7.01l7.14 5.53C43.52 37.52 46.1 31.5 46.1 24.5z"/>
  <path fill="#FBBC05" d="M7.38 28.74c-1.02-2.9-1.02-6.08 0-8.98L.24 14.26C-2.02 18.26-2.02 25.74.24 29.74l7.14-5.53z"/>
  <path fill="#EA4335" d="M24 46c5.74 0 10.55-1.88 14.09-5.09l-7.14-5.53c-2.02 1.36-4.55 2.12-6.95 2.12-5.05 0-9.1-3.55-10.55-8.31l-7.14 5.53C7.48 41.52 14.94 46 24 46z"/>
  <path fill="none" d="M0 0h48v48H0z"/>
</svg>